<?xml version="1.0" standalone="no"?>
<!DOCTYPE svg PUBLIC "-//W3C//DTD SVG 20010904//EN"
 "http://www.w3.org/TR/2001/REC-SVG-20010904/DTD/svg10.dtd">
<svg version="1.0" xmlns="http://www.w3.org/2000/svg"
 width="391.000000pt" height="391.000000pt" viewBox="0 0 391.000000 391.000000"
 preserveAspectRatio="xMidYMid meet">

<g transform="translate(0.000000,391.000000) scale(0.100000,-0.100000)"
fill="#000000" stroke="none">
<path d="M968 3039 c-34 -17 -38 -23 -38 -59 0 -22 2 -40 5 -40 2 0 25 10 50
22 43 21 46 25 43 57 -4 42 -13 45 -60 20z"/>
<path d="M1058 3030 c-3 -16 -3 -30 -1 -30 7 0 93 52 93 56 0 2 -20 4 -44 4
-41 0 -44 -2 -48 -30z"/>
<path d="M1208 3044 c-25 -13 -28 -20 -28 -64 l0 -50 50 25 c47 24 50 27 50
65 0 35 -3 40 -22 40 -13 -1 -35 -8 -50 -16z"/>
<path d="M1310 3030 l0 -30 50 25 c28 14 50 28 50 30 0 3 -22 5 -50 5 -49 0
-50 -1 -50 -30z"/>
<path d="M1468 3044 c-20 -10 -28 -23 -28 -42 0 -15 -3 -38 -7 -50 l-6 -24 52
26 c49 25 51 28 51 66 0 45 -14 51 -62 24z"/>
<path d="M1560 3030 c0 -16 2 -30 5 -30 13 0 95 45 95 52 0 4 -22 8 -50 8 -49
0 -50 -1 -50 -30z"/>
<path d="M1718 3044 c-25 -13 -28 -20 -28 -64 l0 -50 50 25 c47 24 50 27 50
65 0 35 -3 40 -22 40 -13 -1 -35 -8 -50 -16z"/>
<path d="M1820 3030 c0 -16 2 -30 6 -30 11 0 84 45 84 53 0 4 -20 7 -45 7 -43
0 -45 -1 -45 -30z"/>
<path d="M2068 2959 c-65 -32 -118 -61 -118 -64 0 -3 51 20 113 51 61 31 123
60 137 65 20 6 21 7 5 8 -11 0 -73 -27 -137 -60z"/>
<path d="M1093 2987 c-42 -20 -43 -22 -43 -69 0 -26 2 -48 5 -48 2 0 25 10 50
22 44 22 45 23 45 70 0 26 -3 48 -7 47 -5 0 -27 -10 -50 -22z"/>
<path d="M1353 2987 c-42 -20 -43 -22 -43 -69 0 -26 2 -48 5 -48 2 0 25 10 50
22 44 22 45 23 45 70 0 26 -3 48 -7 47 -5 0 -27 -10 -50 -22z"/>
<path d="M1603 2987 c-42 -21 -43 -22 -43 -74 l0 -53 50 28 c49 26 50 28 50
75 0 26 -3 47 -7 46 -5 0 -27 -10 -50 -22z"/>
<path d="M1858 2984 c-47 -24 -48 -25 -48 -74 l0 -50 55 27 55 27 0 48 c0 26
-3 48 -7 48 -5 -1 -29 -12 -55 -26z"/>
<path d="M2290 2972 c0 -7 -129 -75 -286 -152 l-286 -139 -39 19 c-21 11 -39
24 -39 28 0 4 36 25 80 47 44 21 78 40 76 42 -2 2 -56 -22 -120 -54 l-116 -58
0 -53 c0 -49 1 -52 19 -42 25 13 31 13 31 0 0 -6 -11 -16 -25 -22 -22 -10 -25
-17 -25 -65 0 -29 3 -53 8 -53 23 1 87 48 90 68 3 21 22 32 22 12 0 -19 41
-10 111 26 39 19 73 33 76 30 3 -2 -9 -12 -26 -21 -28 -14 -31 -20 -31 -65 0
-33 4 -50 13 -50 6 0 0 -11 -15 -24 -15 -13 -24 -26 -22 -29 3 -3 -35 -63 -84
-134 -49 -70 -94 -138 -101 -150 -6 -12 -11 -53 -11 -91 l0 -70 63 -26 62 -27
300 148 300 148 6 48 c3 27 1 50 -3 53 -4 3 -8 16 -8 28 0 32 -101 76 -132 57
-10 -6 -24 -9 -30 -5 -6 4 -8 3 -5 -3 3 -5 -33 -28 -80 -52 l-86 -42 18 28
c60 91 69 103 81 99 8 -3 11 0 8 8 -5 12 74 139 115 185 11 13 21 28 21 33 0
5 23 41 50 80 47 66 50 75 48 127 l-2 56 -3 -53 c-4 -51 -14 -67 -227 -375
-122 -177 -231 -335 -241 -350 -16 -25 9 -15 213 87 128 64 234 116 237 116 3
0 5 -27 5 -60 l0 -60 -287 -140 c-157 -77 -288 -140 -290 -140 -1 0 -3 33 -3
74 l0 73 167 244 c91 134 197 289 235 343 37 55 66 101 65 103 -2 2 -105 -46
-228 -106 -123 -60 -228 -106 -232 -101 -5 4 -7 28 -5 54 l3 48 290 141 c160
78 292 143 294 144 3 2 -1 9 -7 15 -9 9 -12 9 -12 0z m-355 -546 c-119 -174
-220 -318 -225 -321 -8 -5 -70 13 -83 25 -5 4 73 126 173 271 l181 264 82 41
c45 23 83 41 85 39 2 -2 -94 -145 -213 -319z m-257 264 c30 -18 32 -23 32 -75
l0 -55 -45 22 c-45 22 -45 22 -45 75 0 60 7 64 58 33z m262 -61 c-7 -11 -14
-18 -17 -15 -8 8 5 36 17 36 7 0 7 -6 0 -21z m310 -254 c17 -9 30 -18 30 -20
0 -3 -90 -50 -200 -105 -110 -55 -200 -97 -200 -94 0 3 17 29 37 58 33 48 49
60 157 114 67 33 127 61 134 61 7 1 26 -6 42 -14z m-565 -285 c24 -9 25 -14
25 -80 0 -79 -1 -80 -72 -43 -26 13 -28 18 -28 79 0 73 0 73 75 44z"/>
<path d="M973 2927 c-42 -21 -43 -22 -43 -74 l0 -53 50 28 c49 26 50 28 50 75
0 26 -3 47 -7 46 -5 0 -27 -10 -50 -22z"/>
<path d="M1228 2924 c-48 -24 -48 -25 -48 -74 l0 -50 50 25 c50 25 50 25 50
75 0 28 -1 50 -2 50 -2 -1 -24 -12 -50 -26z"/>
<path d="M1478 2924 c-48 -24 -48 -25 -48 -74 0 -28 3 -50 8 -50 4 1 27 11 52
24 44 23 44 24 41 72 -1 27 -3 50 -4 51 -1 0 -23 -10 -49 -23z"/>
<path d="M1738 2924 c-47 -24 -48 -25 -48 -74 0 -28 3 -50 6 -50 3 0 25 12 50
26 43 25 44 28 44 75 0 27 -1 49 -2 49 -2 -1 -24 -12 -50 -26z"/>
<path d="M1358 2864 c-47 -24 -48 -25 -48 -74 0 -28 2 -50 5 -50 2 0 25 10 50
22 45 22 45 22 45 75 0 29 -1 53 -2 53 -2 -1 -24 -12 -50 -26z"/>
<path d="M1868 2859 c-32 -16 -58 -32 -58 -34 0 -5 119 52 129 61 13 12 -22
-1 -71 -27z"/>
<path d="M1093 2857 c-43 -21 -43 -22 -43 -74 l0 -53 38 19 c70 37 75 43 67
89 -4 23 -10 42 -13 41 -4 0 -26 -10 -49 -22z"/>
<path d="M1603 2857 c-42 -21 -43 -22 -43 -74 l0 -53 50 25 c50 25 50 25 50
75 0 28 -3 50 -7 49 -5 0 -27 -10 -50 -22z"/>
<path d="M973 2797 c-42 -21 -43 -22 -43 -74 l0 -53 50 25 c50 25 50 25 50 75
0 28 -3 50 -7 49 -5 0 -27 -10 -50 -22z"/>
<path d="M1228 2794 c-48 -24 -48 -25 -48 -74 0 -28 2 -50 5 -50 15 0 87 43
91 54 3 8 4 32 2 54 l-3 40 -47 -24z"/>
<path d="M1478 2794 c-47 -24 -48 -25 -48 -74 0 -28 2 -50 5 -50 3 0 28 11 55
25 50 25 50 25 50 75 0 28 -3 50 -7 50 -5 -1 -29 -12 -55 -26z"/>
<path d="M1103 2732 l-53 -26 0 -53 0 -53 55 27 55 27 0 53 c0 29 -1 53 -2 52
-2 0 -27 -12 -55 -27z"/>
<path d="M1359 2735 c-45 -23 -47 -26 -52 -77 -2 -29 -3 -54 -2 -56 2 -2 26 8
54 22 l51 26 0 55 c0 30 -1 55 -2 55 -2 -1 -24 -12 -49 -25z"/>
<path d="M973 2667 c-42 -21 -43 -22 -43 -74 l0 -53 50 25 c50 25 50 25 50 75
0 28 -3 50 -7 49 -5 0 -27 -10 -50 -22z"/>
<path d="M1223 2664 c-41 -24 -43 -27 -43 -75 0 -27 2 -49 5 -49 2 0 25 10 50
22 45 22 45 22 45 75 0 29 -3 53 -7 53 -5 0 -27 -12 -50 -26z"/>
<path d="M1478 2664 l-48 -24 0 -56 0 -55 53 28 c52 28 52 28 55 81 2 28 -1
52 -5 52 -4 -1 -29 -12 -55 -26z"/>
<path d="M1103 2602 l-53 -26 0 -53 0 -53 55 27 55 27 0 53 c0 29 -1 53 -2 52
-2 0 -27 -12 -55 -27z"/>
<path d="M1355 2602 c-49 -27 -50 -28 -53 -79 -2 -29 0 -53 3 -53 3 0 28 11
55 25 l50 25 0 55 c0 30 -1 55 -2 55 -2 0 -25 -13 -53 -28z"/>
<path d="M973 2537 c-42 -21 -43 -22 -43 -74 0 -29 3 -53 8 -53 4 0 25 10 47
23 38 21 40 25 43 75 2 28 -1 52 -5 51 -4 0 -27 -10 -50 -22z"/>
<path d="M1223 2534 c-41 -24 -43 -27 -43 -75 0 -27 2 -49 5 -49 2 0 25 10 50
22 45 22 45 22 45 75 0 29 -3 53 -7 53 -5 0 -27 -12 -50 -26z"/>
<path d="M1478 2534 l-48 -24 0 -55 0 -55 55 27 55 27 0 53 c0 29 -3 53 -7 53
-5 -1 -29 -12 -55 -26z"/>
<path d="M1735 2532 c-48 -26 -50 -29 -53 -74 -2 -27 0 -48 3 -48 3 0 28 11
55 25 50 25 50 25 50 75 0 28 -1 50 -2 50 -2 0 -25 -13 -53 -28z"/>
<path d="M1103 2472 l-53 -26 0 -53 c0 -29 3 -53 6 -53 4 0 28 12 55 27 l49
26 0 54 c0 29 -1 53 -2 52 -2 0 -27 -12 -55 -27z"/>
<path d="M1355 2472 c-49 -27 -50 -28 -53 -79 -2 -29 0 -53 3 -53 3 0 28 11
55 25 l50 25 0 55 c0 30 -1 55 -2 55 -2 0 -25 -13 -53 -28z"/>
<path d="M1603 2467 c-42 -20 -43 -22 -43 -69 0 -26 2 -48 5 -48 3 0 27 11 53
24 47 24 47 24 44 70 -2 25 -7 46 -11 45 -3 0 -25 -10 -48 -22z"/>
<path d="M973 2407 c-42 -21 -43 -22 -43 -74 0 -29 2 -53 5 -53 2 0 25 10 50
22 45 22 45 22 45 75 0 29 -3 53 -7 52 -5 0 -27 -10 -50 -22z"/>
<path d="M1223 2403 c-42 -24 -43 -25 -43 -79 l0 -55 50 28 50 28 0 53 c0 28
-3 52 -7 51 -5 -1 -27 -12 -50 -26z"/>
<path d="M1478 2404 c-47 -24 -48 -25 -48 -74 l0 -50 55 27 55 27 0 48 c0 26
-3 48 -7 48 -5 -1 -29 -12 -55 -26z"/>
<path d="M1103 2342 l-53 -26 0 -53 c0 -29 2 -53 5 -53 3 0 28 11 55 25 l50
25 0 55 c0 30 -1 55 -2 54 -2 0 -27 -12 -55 -27z"/>
<path d="M1355 2342 c-48 -26 -50 -29 -53 -74 -2 -27 0 -48 3 -48 3 0 28 11
55 25 50 25 50 25 50 75 0 28 -1 50 -2 50 -2 0 -25 -13 -53 -28z"/>
<path d="M973 2277 c-42 -21 -43 -22 -43 -74 0 -29 2 -53 5 -53 2 0 25 10 50
22 45 22 45 22 45 75 0 29 -3 53 -7 52 -5 0 -27 -10 -50 -22z"/>
<path d="M1228 2274 c-46 -24 -48 -26 -48 -69 0 -25 2 -45 5 -45 2 0 25 10 50
22 44 22 45 23 45 70 0 26 -1 48 -2 48 -2 -1 -24 -12 -50 -26z"/>
<path d="M1103 2212 c-53 -26 -53 -26 -53 -74 l0 -48 55 27 55 27 0 48 c0 26
-1 48 -2 47 -2 0 -27 -12 -55 -27z"/>
<path d="M1145 2113 l-210 -105 55 -29 c30 -15 60 -28 65 -28 6 0 -15 13 -45
28 l-55 29 210 105 c116 58 206 106 200 106 -5 0 -104 -48 -220 -106z"/>
<path d="M973 2147 c-42 -20 -43 -22 -43 -69 l0 -48 50 25 c49 25 50 26 50 70
0 25 -3 45 -7 44 -5 0 -27 -10 -50 -22z"/>
<path d="M2905 2010 c3 -5 -214 -120 -482 -254 -268 -135 -485 -245 -480 -245
9 -1 987 488 987 493 0 2 -7 7 -16 10 -8 3 -12 2 -9 -4z"/>
<path d="M1680 1640 c74 -38 140 -69 145 -69 6 0 -51 31 -125 69 -74 38 -139
69 -145 69 -5 0 51 -31 125 -69z"/>
<path d="M804 1267 c-3 -8 -4 -43 -2 -78 l3 -64 217 -5 216 -5 -224 -283 -224
-284 0 -74 0 -74 340 0 340 0 0 75 0 75 -225 0 c-124 0 -225 3 -225 8 0 4 102
135 225 292 l226 285 -3 70 -3 70 -328 3 c-270 2 -328 0 -333 -11z"/>
<path d="M1712 1042 c-29 -11 -64 -30 -79 -43 -31 -29 -62 -94 -63 -131 l0
-28 78 0 c77 0 77 0 92 33 20 43 54 59 117 54 62 -4 93 -27 93 -68 0 -40 -31
-57 -125 -69 -212 -29 -278 -83 -277 -225 0 -29 7 -66 15 -81 60 -116 223
-139 342 -49 53 41 55 41 55 16 0 -47 8 -51 101 -51 70 0 89 3 89 14 0 8 -6
16 -12 18 -10 4 -14 66 -18 249 -6 289 -8 295 -105 344 -51 25 -72 30 -155 32
-73 3 -107 -1 -148 -15z m238 -383 c0 -71 -23 -114 -74 -139 -59 -28 -111 -26
-141 5 -58 58 -14 134 91 155 32 6 70 15 84 20 39 13 40 13 40 -41z"/>
<path d="M2530 1042 c-19 -9 -49 -36 -67 -60 l-32 -42 -3 52 -3 53 -77 3 -78
3 0 -326 0 -325 80 0 80 0 0 159 c0 196 10 256 50 296 25 25 39 30 95 33 l65
4 0 84 0 84 -37 0 c-21 0 -54 -8 -73 -18z"/>
<path d="M3003 1039 c-23 -11 -54 -39 -70 -61 l-28 -42 -3 58 -3 57 -77 -3
-77 -3 -3 -322 -2 -323 85 0 85 0 0 188 c0 162 3 193 19 229 24 52 63 73 136
73 l55 0 0 85 0 85 -37 0 c-21 0 -57 -9 -80 -21z"/>
</g>
</svg>
