<?xml version="1.0" encoding="UTF-8" standalone="no"?>
<!DOCTYPE svg PUBLIC "-//W3C//DTD SVG 1.1//EN"
 "http://www.w3.org/Graphics/SVG/1.1/DTD/svg11.dtd">
<!-- Generated by graphviz version 2.43.0 (0)
 -->
<!-- Title: G Pages: 1 -->
<svg width="1003pt" height="362pt"
 viewBox="0.00 0.00 1003.05 361.85" xmlns="http://www.w3.org/2000/svg" xmlns:xlink="http://www.w3.org/1999/xlink">
<g id="graph0" class="graph" transform="scale(1 1) rotate(0) translate(4 357.85)">
<title>G</title>
<g id="clust1" class="cluster">
<title>cluster_0</title>
<polygon fill="transparent" stroke="white" points="619.05,-8 619.05,-236.31 987.05,-236.31 987.05,-8 619.05,-8"/>
<text text-anchor="middle" x="803.05" y="-216.31" font-family="Times,serif" font-size="20.00" fill="white">Pyxem Ecosystem</text>
</g>
<!-- a -->
<g id="node1" class="node">
<title>a</title>
<ellipse fill="none" stroke="white" cx="506.05" cy="-335.46" rx="52.15" ry="18.27"/>
<text text-anchor="middle" x="506.05" y="-331.66" font-family="Times,serif" font-size="16.00" fill="white">Python</text>
</g>
<!-- b -->
<g id="node2" class="node">
<title>b</title>
<ellipse fill="none" stroke="white" cx="506.05" cy="-262.69" rx="50.82" ry="18.27"/>
<text text-anchor="middle" x="506.05" y="-258.89" font-family="Times,serif" font-size="16.00" fill="white">numpy</text>
</g>
<!-- a&#45;&gt;b -->
<g id="edge1" class="edge">
<title>a&#45;&gt;b</title>
<path fill="none" stroke="white" d="M506.05,-316.97C506.05,-309.29 506.05,-300.08 506.05,-291.49"/>
<polygon fill="white" stroke="white" points="509.55,-291.48 506.05,-281.48 502.55,-291.48 509.55,-291.48"/>
</g>
<!-- d -->
<g id="node3" class="node">
<title>d</title>
<ellipse fill="none" stroke="white" cx="441.05" cy="-179.92" rx="71.34" ry="18.27"/>
<text text-anchor="middle" x="441.05" y="-176.12" font-family="Times,serif" font-size="16.00" fill="white">matplotlib</text>
</g>
<!-- b&#45;&gt;d -->
<g id="edge3" class="edge">
<title>b&#45;&gt;d</title>
<path fill="none" stroke="white" d="M492.59,-244.96C483.56,-233.74 471.5,-218.76 461.32,-206.11"/>
<polygon fill="white" stroke="white" points="463.95,-203.79 454.95,-198.2 458.5,-208.18 463.95,-203.79"/>
</g>
<!-- e -->
<g id="node4" class="node">
<title>e</title>
<ellipse fill="none" stroke="white" cx="571.05" cy="-179.92" rx="40.11" ry="18.27"/>
<text text-anchor="middle" x="571.05" y="-176.12" font-family="Times,serif" font-size="16.00" fill="white">Dask</text>
</g>
<!-- b&#45;&gt;e -->
<g id="edge4" class="edge">
<title>b&#45;&gt;e</title>
<path fill="none" stroke="white" d="M519.52,-244.96C528.73,-233.51 541.1,-218.15 551.4,-205.34"/>
<polygon fill="white" stroke="white" points="554.28,-207.35 557.83,-197.36 548.83,-202.96 554.28,-207.35"/>
</g>
<!-- f -->
<g id="node5" class="node">
<title>f</title>
<ellipse fill="none" stroke="white" cx="189.05" cy="-179.92" rx="162.77" ry="18.27"/>
<text text-anchor="middle" x="189.05" y="-176.12" font-family="Times,serif" font-size="16.00" fill="white">Scientifici Stack &#160;(scipy ...</text>
</g>
<!-- b&#45;&gt;f -->
<g id="edge5" class="edge">
<title>b&#45;&gt;f</title>
<path fill="none" stroke="white" d="M459.35,-255.2C430.76,-250.8 393.55,-244.35 361.05,-236.31 321.56,-226.54 277.93,-212.46 244.5,-200.93"/>
<polygon fill="white" stroke="white" points="245.51,-197.58 234.91,-197.6 243.21,-204.19 245.51,-197.58"/>
</g>
<!-- g -->
<g id="node6" class="node">
<title>g</title>
<ellipse fill="none" stroke="white" cx="943.05" cy="-107.15" rx="36.12" ry="18.27"/>
<text text-anchor="middle" x="943.05" y="-103.35" font-family="Times,serif" font-size="16.00" fill="white">Orix</text>
</g>
<!-- b&#45;&gt;g -->
<g id="edge6" class="edge">
<title>b&#45;&gt;g</title>
<path fill="none" stroke="white" d="M553.7,-256.07C574.77,-252.35 599.4,-246.24 620.05,-236.31 667.85,-213.33 664.95,-183.87 713.05,-161.54 789.03,-126.26 817.56,-148.72 898.05,-125.54 900.85,-124.74 903.71,-123.83 906.57,-122.87"/>
<polygon fill="white" stroke="white" points="907.96,-126.09 916.19,-119.42 905.6,-119.5 907.96,-126.09"/>
</g>
<!-- h -->
<g id="node7" class="node">
<title>h</title>
<ellipse fill="none" stroke="white" cx="684.05" cy="-107.15" rx="56.64" ry="18.27"/>
<text text-anchor="middle" x="684.05" y="-103.35" font-family="Times,serif" font-size="16.00" fill="white">diffsims</text>
</g>
<!-- b&#45;&gt;h -->
<g id="edge7" class="edge">
<title>b&#45;&gt;h</title>
<path fill="none" stroke="white" d="M455.12,-260.91C332.9,-258.8 31.96,-252.01 17.05,-236.31 -5.83,-212.21 -5.49,-185.96 17.05,-161.54 57.2,-118.05 456.05,-109.97 617.12,-108.48"/>
<polygon fill="white" stroke="white" points="617.41,-111.98 627.38,-108.4 617.35,-104.98 617.41,-111.98"/>
</g>
<!-- c -->
<g id="node10" class="node">
<title>c</title>
<ellipse fill="none" stroke="white" cx="805.05" cy="-179.92" rx="82.96" ry="18.27"/>
<text text-anchor="middle" x="805.05" y="-176.12" font-family="Times,serif" font-size="16.00" fill="white">Rosettasciio</text>
</g>
<!-- b&#45;&gt;c -->
<g id="edge2" class="edge">
<title>b&#45;&gt;c</title>
<path fill="none" stroke="white" d="M556.15,-259.01C593.67,-255.99 645.91,-249.63 690.05,-236.31 717.34,-228.08 746.24,-214.14 768.24,-202.3"/>
<polygon fill="white" stroke="white" points="770.14,-205.25 777.22,-197.38 766.77,-199.11 770.14,-205.25"/>
</g>
<!-- i -->
<g id="node8" class="node">
<title>i</title>
<ellipse fill="none" stroke="white" cx="824.05" cy="-107.15" rx="65.11" ry="18.27"/>
<text text-anchor="middle" x="824.05" y="-103.35" font-family="Times,serif" font-size="16.00" fill="white">hyperspy</text>
</g>
<!-- d&#45;&gt;i -->
<g id="edge9" class="edge">
<title>d&#45;&gt;i</title>
<path fill="none" stroke="white" d="M493.26,-167.28C502.82,-165.27 512.72,-163.28 522.05,-161.54 622.91,-142.77 649.38,-145.28 750.05,-125.54 755.48,-124.48 761.11,-123.29 766.73,-122.06"/>
<polygon fill="white" stroke="white" points="767.8,-125.41 776.8,-119.81 766.27,-118.58 767.8,-125.41"/>
</g>
<!-- e&#45;&gt;i -->
<g id="edge10" class="edge">
<title>e&#45;&gt;i</title>
<path fill="none" stroke="white" d="M599.74,-166.99C604.8,-165.05 610.05,-163.16 615.05,-161.54 642.92,-152.52 714.76,-134.59 766.43,-122.01"/>
<polygon fill="white" stroke="white" points="767.26,-125.41 776.16,-119.64 765.61,-118.6 767.26,-125.41"/>
</g>
<!-- f&#45;&gt;i -->
<g id="edge11" class="edge">
<title>f&#45;&gt;i</title>
<path fill="none" stroke="white" d="M305.62,-167.01C324.16,-165.15 343.13,-163.27 361.05,-161.54 533.87,-144.81 578.69,-153.46 750.05,-125.54 755.81,-124.6 761.79,-123.47 767.73,-122.24"/>
<polygon fill="white" stroke="white" points="768.64,-125.62 777.67,-120.09 767.16,-118.78 768.64,-125.62"/>
</g>
<!-- j -->
<g id="node9" class="node">
<title>j</title>
<ellipse fill="none" stroke="white" cx="824.05" cy="-34.38" rx="49.49" ry="18.27"/>
<text text-anchor="middle" x="824.05" y="-30.58" font-family="Times,serif" font-size="16.00" fill="white">pyxem</text>
</g>
<!-- g&#45;&gt;j -->
<g id="edge13" class="edge">
<title>g&#45;&gt;j</title>
<path fill="none" stroke="white" d="M920.39,-92.68C902.73,-82.17 877.93,-67.43 857.92,-55.52"/>
<polygon fill="white" stroke="white" points="859.49,-52.38 849.1,-50.28 855.91,-58.4 859.49,-52.38"/>
</g>
<!-- h&#45;&gt;j -->
<g id="edge14" class="edge">
<title>h&#45;&gt;j</title>
<path fill="none" stroke="white" d="M713.4,-91.32C734.69,-80.56 763.64,-65.92 786.59,-54.32"/>
<polygon fill="white" stroke="white" points="788.36,-57.35 795.7,-49.72 785.2,-51.11 788.36,-57.35"/>
</g>
<!-- i&#45;&gt;j -->
<g id="edge12" class="edge">
<title>i&#45;&gt;j</title>
<path fill="none" stroke="white" d="M824.05,-88.66C824.05,-80.98 824.05,-71.77 824.05,-63.19"/>
<polygon fill="white" stroke="white" points="827.55,-63.17 824.05,-53.17 820.55,-63.17 827.55,-63.17"/>
</g>
<!-- c&#45;&gt;i -->
<g id="edge8" class="edge">
<title>c&#45;&gt;i</title>
<path fill="none" stroke="white" d="M809.75,-161.43C811.84,-153.66 814.34,-144.34 816.67,-135.67"/>
<polygon fill="white" stroke="white" points="820.07,-136.5 819.28,-125.94 813.31,-134.69 820.07,-136.5"/>
</g>
</g>
</svg>
